<mxfile host="app.diagrams.net" agent="Mozilla/5.0 (Windows NT 10.0; Win64; x64) AppleWebKit/537.36 (KHTML, like Gecko) Chrome/137.0.0.0 Safari/537.36" version="27.1.6">
  <diagram name="Página-1" id="esPIXZYzyLC4NXMFk4m4">
    <mxGraphModel grid="1" page="1" gridSize="10" guides="1" tooltips="1" connect="1" arrows="1" fold="1" pageScale="1" pageWidth="827" pageHeight="1169" math="0" shadow="0">
      <root>
        <mxCell id="0" />
        <mxCell id="1" parent="0" />
        <mxCell id="izn0ppoS9mLuT67oPZO2-1" value="Usuario" style="html=1;whiteSpace=wrap;" vertex="1" parent="1">
          <mxGeometry x="46.25" y="50" width="110" height="50" as="geometry" />
        </mxCell>
        <mxCell id="izn0ppoS9mLuT67oPZO2-2" value="Sistema&lt;span style=&quot;color: rgba(0, 0, 0, 0); font-family: monospace; font-size: 0px; text-align: start; text-wrap-mode: nowrap;&quot;&gt;%3CmxGraphModel%3E%3Croot%3E%3CmxCell%20id%3D%220%22%2F%3E%3CmxCell%20id%3D%221%22%20parent%3D%220%22%2F%3E%3CmxCell%20id%3D%222%22%20value%3D%22Usuario%22%20style%3D%22html%3D1%3BwhiteSpace%3Dwrap%3B%22%20vertex%3D%221%22%20parent%3D%221%22%3E%3CmxGeometry%20x%3D%2270%22%20y%3D%2240%22%20width%3D%22110%22%20height%3D%2250%22%20as%3D%22geometry%22%2F%3E%3C%2FmxCell%3E%3C%2Froot%3E%3C%2FmxGraphModel%3E&lt;/span&gt;" style="html=1;whiteSpace=wrap;" vertex="1" parent="1">
          <mxGeometry x="246.25" y="50" width="110" height="50" as="geometry" />
        </mxCell>
        <mxCell id="izn0ppoS9mLuT67oPZO2-3" value="Base de datos" style="html=1;whiteSpace=wrap;" vertex="1" parent="1">
          <mxGeometry x="437.5" y="50" width="110" height="50" as="geometry" />
        </mxCell>
        <mxCell id="izn0ppoS9mLuT67oPZO2-4" value="Usuario&amp;nbsp;" style="html=1;whiteSpace=wrap;" vertex="1" parent="1">
          <mxGeometry x="40" y="730" width="110" height="50" as="geometry" />
        </mxCell>
        <mxCell id="izn0ppoS9mLuT67oPZO2-5" value="Sistema&lt;span style=&quot;color: rgba(0, 0, 0, 0); font-family: monospace; font-size: 0px; text-align: start; text-wrap-mode: nowrap;&quot;&gt;%3CmxGraphModel%3E%3Croot%3E%3CmxCell%20id%3D%220%22%2F%3E%3CmxCell%20id%3D%221%22%20parent%3D%220%22%2F%3E%3CmxCell%20id%3D%222%22%20value%3D%22Usuario%22%20style%3D%22html%3D1%3BwhiteSpace%3Dwrap%3B%22%20vertex%3D%221%22%20parent%3D%221%22%3E%3CmxGeometry%20x%3D%2270%22%20y%3D%2240%22%20width%3D%22110%22%20height%3D%2250%22%20as%3D%22geometry%22%2F%3E%3C%2FmxCell%3E%3C%2Froot%3E%3C%2FmxGraphModel%3E&lt;/span&gt;" style="html=1;whiteSpace=wrap;" vertex="1" parent="1">
          <mxGeometry x="246.25" y="730" width="110" height="50" as="geometry" />
        </mxCell>
        <mxCell id="izn0ppoS9mLuT67oPZO2-6" value="Base de datos" style="html=1;whiteSpace=wrap;" vertex="1" parent="1">
          <mxGeometry x="437.5" y="730" width="110" height="50" as="geometry" />
        </mxCell>
        <mxCell id="izn0ppoS9mLuT67oPZO2-7" value="" style="endArrow=none;dashed=1;html=1;rounded=0;entryX=0.5;entryY=1;entryDx=0;entryDy=0;exitX=0.5;exitY=0;exitDx=0;exitDy=0;" edge="1" parent="1" source="izn0ppoS9mLuT67oPZO2-9" target="izn0ppoS9mLuT67oPZO2-2">
          <mxGeometry width="50" height="50" relative="1" as="geometry">
            <mxPoint x="276.25" y="330" as="sourcePoint" />
            <mxPoint x="326.25" y="280" as="targetPoint" />
          </mxGeometry>
        </mxCell>
        <mxCell id="izn0ppoS9mLuT67oPZO2-9" value="" style="html=1;points=[[0,0,0,0,5],[0,1,0,0,-5],[1,0,0,0,5],[1,1,0,0,-5]];perimeter=orthogonalPerimeter;outlineConnect=0;targetShapes=umlLifeline;portConstraint=eastwest;newEdgeStyle={&quot;curved&quot;:0,&quot;rounded&quot;:0};" vertex="1" parent="1">
          <mxGeometry x="296.25" y="140" width="10" height="30" as="geometry" />
        </mxCell>
        <mxCell id="izn0ppoS9mLuT67oPZO2-10" value="" style="endArrow=classic;html=1;rounded=0;entryX=0;entryY=0;entryDx=0;entryDy=5;entryPerimeter=0;" edge="1" parent="1" target="izn0ppoS9mLuT67oPZO2-9">
          <mxGeometry width="50" height="50" relative="1" as="geometry">
            <mxPoint x="96.25" y="145" as="sourcePoint" />
            <mxPoint x="206.25" y="120" as="targetPoint" />
          </mxGeometry>
        </mxCell>
        <mxCell id="izn0ppoS9mLuT67oPZO2-11" value="1. Accede al apartado &quot;Contratos&quot;" style="text;html=1;align=center;verticalAlign=middle;whiteSpace=wrap;rounded=0;" vertex="1" parent="1">
          <mxGeometry x="96.25" y="120" width="200" height="20" as="geometry" />
        </mxCell>
        <mxCell id="izn0ppoS9mLuT67oPZO2-15" value="" style="endArrow=none;dashed=1;html=1;rounded=0;exitX=0.449;exitY=-0.016;exitDx=0;exitDy=0;exitPerimeter=0;entryX=0.442;entryY=1.036;entryDx=0;entryDy=0;entryPerimeter=0;" edge="1" parent="1" source="izn0ppoS9mLuT67oPZO2-24" target="izn0ppoS9mLuT67oPZO2-1">
          <mxGeometry width="50" height="50" relative="1" as="geometry">
            <mxPoint x="90.25" y="899" as="sourcePoint" />
            <mxPoint x="88.58000000000004" y="210.51" as="targetPoint" />
            <Array as="points" />
          </mxGeometry>
        </mxCell>
        <mxCell id="izn0ppoS9mLuT67oPZO2-16" value="6. Notificación de error: Archivo inválido" style="text;html=1;align=center;verticalAlign=middle;whiteSpace=wrap;rounded=0;" vertex="1" parent="1">
          <mxGeometry x="107.75" y="370" width="190" height="20" as="geometry" />
        </mxCell>
        <mxCell id="izn0ppoS9mLuT67oPZO2-19" value="" style="endArrow=none;dashed=1;html=1;rounded=0;" edge="1" parent="1" source="izn0ppoS9mLuT67oPZO2-53" target="izn0ppoS9mLuT67oPZO2-27">
          <mxGeometry width="50" height="50" relative="1" as="geometry">
            <mxPoint x="301.25" y="400" as="sourcePoint" />
            <mxPoint x="306.25" y="390" as="targetPoint" />
            <Array as="points" />
          </mxGeometry>
        </mxCell>
        <mxCell id="izn0ppoS9mLuT67oPZO2-22" value="" style="endArrow=none;dashed=1;html=1;rounded=0;" edge="1" parent="1" source="izn0ppoS9mLuT67oPZO2-27" target="izn0ppoS9mLuT67oPZO2-9">
          <mxGeometry width="50" height="50" relative="1" as="geometry">
            <mxPoint x="301.25" y="280" as="sourcePoint" />
            <mxPoint x="309" y="190" as="targetPoint" />
          </mxGeometry>
        </mxCell>
        <mxCell id="izn0ppoS9mLuT67oPZO2-24" value="" style="html=1;points=[[0,0,0,0,5],[0,1,0,0,-5],[1,0,0,0,5],[1,1,0,0,-5]];perimeter=orthogonalPerimeter;outlineConnect=0;targetShapes=umlLifeline;portConstraint=eastwest;newEdgeStyle={&quot;curved&quot;:0,&quot;rounded&quot;:0};" vertex="1" parent="1">
          <mxGeometry x="90" y="190" width="10" height="30" as="geometry" />
        </mxCell>
        <mxCell id="izn0ppoS9mLuT67oPZO2-25" value="" style="endArrow=classic;html=1;rounded=0;entryX=1;entryY=0;entryDx=0;entryDy=5;entryPerimeter=0;" edge="1" parent="1" target="izn0ppoS9mLuT67oPZO2-24">
          <mxGeometry width="50" height="50" relative="1" as="geometry">
            <mxPoint x="302.5" y="196" as="sourcePoint" />
            <mxPoint x="414.5" y="166" as="targetPoint" />
          </mxGeometry>
        </mxCell>
        <mxCell id="izn0ppoS9mLuT67oPZO2-26" value="2. Mostrar apartado" style="text;html=1;align=center;verticalAlign=middle;whiteSpace=wrap;rounded=0;" vertex="1" parent="1">
          <mxGeometry x="117.5" y="170" width="170" height="20" as="geometry" />
        </mxCell>
        <mxCell id="izn0ppoS9mLuT67oPZO2-27" value="" style="html=1;points=[[0,0,0,0,5],[0,1,0,0,-5],[1,0,0,0,5],[1,1,0,0,-5]];perimeter=orthogonalPerimeter;outlineConnect=0;targetShapes=umlLifeline;portConstraint=eastwest;newEdgeStyle={&quot;curved&quot;:0,&quot;rounded&quot;:0};" vertex="1" parent="1">
          <mxGeometry x="296.25" y="240" width="10" height="30" as="geometry" />
        </mxCell>
        <mxCell id="izn0ppoS9mLuT67oPZO2-28" value="" style="endArrow=classic;html=1;rounded=0;entryX=0;entryY=0;entryDx=0;entryDy=5;entryPerimeter=0;" edge="1" parent="1" target="izn0ppoS9mLuT67oPZO2-27">
          <mxGeometry width="50" height="50" relative="1" as="geometry">
            <mxPoint x="96.25" y="244" as="sourcePoint" />
            <mxPoint x="428.25" y="150" as="targetPoint" />
          </mxGeometry>
        </mxCell>
        <mxCell id="izn0ppoS9mLuT67oPZO2-29" value="3. Adjuntar archivo PDF" style="text;html=1;align=center;verticalAlign=middle;whiteSpace=wrap;rounded=0;" vertex="1" parent="1">
          <mxGeometry x="111.25" y="220" width="170" height="20" as="geometry" />
        </mxCell>
        <mxCell id="izn0ppoS9mLuT67oPZO2-31" value="&lt;span style=&quot;color: rgb(237, 237, 237); font-family: monospace; font-size: 0px; text-align: start;&quot;&gt;%3CmxGraphModel%3E%3Croot%3E%3CmxCell%20id%3D%220%22%2F%3E%3CmxCell%20id%3D%221%22%20parent%3D%220%22%2F%3E%3CmxCell%20id%3D%222%22%20value%3D%22%22%20style%3D%22html%3D1%3Bpoints%3D%5B%5B0%2C0%2C0%2C0%2C5%5D%2C%5B0%2C1%2C0%2C0%2C-5%5D%2C%5B1%2C0%2C0%2C0%2C5%5D%2C%5B1%2C1%2C0%2C0%2C-5%5D%5D%3Bperimeter%3DorthogonalPerimeter%3BoutlineConnect%3D0%3BtargetShapes%3DumlLifeline%3BportConstraint%3Deastwest%3BnewEdgeStyle%3D%7B%26quot%3Bcurved%26quot%3B%3A0%2C%26quot%3Brounded%26quot%3B%3A0%7D%3B%22%20vertex%3D%221%22%20parent%3D%221%22%3E%3CmxGeometry%20x%3D%2285%22%20y%3D%22280%22%20width%3D%2210%22%20height%3D%2230%22%20as%3D%22geometry%22%2F%3E%3C%2FmxCell%3E%3C%2Froot%3E%3C%2FmxGraphModel%3E&lt;/span&gt;&lt;span style=&quot;color: rgb(237, 237, 237); font-family: monospace; font-size: 0px; text-align: start;&quot;&gt;%3CmxGraphModel%3E%3Croot%3E%3CmxCell%20id%3D%220%22%2F%3E%3CmxCell%20id%3D%221%22%20parent%3D%220%22%2F%3E%3CmxCell%20id%3D%222%22%20value%3D%22%22%20style%3D%22html%3D1%3Bpoints%3D%5B%5B0%2C0%2C0%2C0%2C5%5D%2C%5B0%2C1%2C0%2C0%2C-5%5D%2C%5B1%2C0%2C0%2C0%2C5%5D%2C%5B1%2C1%2C0%2C0%2C-5%5D%5D%3Bperimeter%3DorthogonalPerimeter%3BoutlineConnect%3D0%3BtargetShapes%3DumlLifeline%3BportConstraint%3Deastwest%3BnewEdgeStyle%3D%7B%26quot%3Bcurved%26quot%3B%3A0%2C%26quot%3Brounded%26quot%3B%3A0%7D%3B%22%20vertex%3D%221%22%20parent%3D%221%22%3E%3CmxGeometry%20x%3D%2285%22%20y%3D%22280%22%20width%3D%2210%22%20height%3D%2230%22%20as%3D%22geometry%22%2F%3E%3C%2FmxCell%3E%3C%2Froot%3E%3C%2FmxGraphModel%3E&lt;/span&gt;" style="html=1;points=[[0,0,0,0,5],[0,1,0,0,-5],[1,0,0,0,5],[1,1,0,0,-5]];perimeter=orthogonalPerimeter;outlineConnect=0;targetShapes=umlLifeline;portConstraint=eastwest;newEdgeStyle={&quot;curved&quot;:0,&quot;rounded&quot;:0};" vertex="1" parent="1">
          <mxGeometry x="90" y="390" width="10" height="30" as="geometry" />
        </mxCell>
        <mxCell id="izn0ppoS9mLuT67oPZO2-32" value="" style="endArrow=none;dashed=1;html=1;rounded=0;exitX=0.5;exitY=0;exitDx=0;exitDy=0;entryX=0.5;entryY=1;entryDx=0;entryDy=0;" edge="1" parent="1" source="izn0ppoS9mLuT67oPZO2-6" target="izn0ppoS9mLuT67oPZO2-3">
          <mxGeometry width="50" height="50" relative="1" as="geometry">
            <mxPoint x="497.5" y="430" as="sourcePoint" />
            <mxPoint x="499" y="210" as="targetPoint" />
          </mxGeometry>
        </mxCell>
        <mxCell id="izn0ppoS9mLuT67oPZO2-34" value="" style="endArrow=none;dashed=1;html=1;rounded=0;exitX=0.449;exitY=-0.016;exitDx=0;exitDy=0;exitPerimeter=0;" edge="1" parent="1" source="izn0ppoS9mLuT67oPZO2-31" target="izn0ppoS9mLuT67oPZO2-24">
          <mxGeometry width="50" height="50" relative="1" as="geometry">
            <mxPoint x="90.25" y="666" as="sourcePoint" />
            <mxPoint x="88.24000000000001" y="390" as="targetPoint" />
            <Array as="points" />
          </mxGeometry>
        </mxCell>
        <mxCell id="izn0ppoS9mLuT67oPZO2-37" value="" style="endArrow=open;endSize=12;html=1;rounded=0;fontSize=12;curved=1;entryX=1;entryY=0;entryDx=0;entryDy=5;entryPerimeter=0;dashed=1;" edge="1" parent="1" target="izn0ppoS9mLuT67oPZO2-31">
          <mxGeometry width="160" relative="1" as="geometry">
            <mxPoint x="302.5" y="395" as="sourcePoint" />
            <mxPoint x="372.5" y="190" as="targetPoint" />
          </mxGeometry>
        </mxCell>
        <mxCell id="izn0ppoS9mLuT67oPZO2-38" value="5. Validar archivo" style="text;html=1;align=center;verticalAlign=middle;whiteSpace=wrap;rounded=0;" vertex="1" parent="1">
          <mxGeometry x="341.25" y="295" width="96.25" height="20" as="geometry" />
        </mxCell>
        <mxCell id="izn0ppoS9mLuT67oPZO2-39" value="" style="endArrow=classic;html=1;rounded=0;entryX=1;entryY=1;entryDx=0;entryDy=-5;entryPerimeter=0;exitX=1;exitY=0;exitDx=0;exitDy=5;exitPerimeter=0;edgeStyle=orthogonalEdgeStyle;" edge="1" parent="1">
          <mxGeometry width="50" height="50" relative="1" as="geometry">
            <mxPoint x="303.75" y="295" as="sourcePoint" />
            <mxPoint x="303.75" y="315" as="targetPoint" />
            <Array as="points">
              <mxPoint x="337.5" y="315" />
            </Array>
          </mxGeometry>
        </mxCell>
        <mxCell id="izn0ppoS9mLuT67oPZO2-41" value="alt" style="shape=umlFrame;whiteSpace=wrap;html=1;pointerEvents=0;" vertex="1" parent="1">
          <mxGeometry x="80" y="340" width="422" height="100" as="geometry" />
        </mxCell>
        <mxCell id="izn0ppoS9mLuT67oPZO2-44" value="" style="endArrow=none;dashed=1;html=1;rounded=0;exitX=0.5;exitY=0;exitDx=0;exitDy=0;" edge="1" parent="1" source="izn0ppoS9mLuT67oPZO2-51" target="izn0ppoS9mLuT67oPZO2-31">
          <mxGeometry width="50" height="50" relative="1" as="geometry">
            <mxPoint x="95.25" y="730" as="sourcePoint" />
            <mxPoint x="95" y="615" as="targetPoint" />
            <Array as="points" />
          </mxGeometry>
        </mxCell>
        <mxCell id="izn0ppoS9mLuT67oPZO2-46" value="" style="endArrow=none;dashed=1;html=1;rounded=0;exitX=0.5;exitY=0;exitDx=0;exitDy=0;" edge="1" parent="1" target="izn0ppoS9mLuT67oPZO2-53">
          <mxGeometry width="50" height="50" relative="1" as="geometry">
            <mxPoint x="300.82" y="730" as="sourcePoint" />
            <mxPoint x="300.82" y="360" as="targetPoint" />
            <Array as="points">
              <mxPoint x="300.82" y="590" />
              <mxPoint x="300.82" y="550" />
              <mxPoint x="300.82" y="520" />
              <mxPoint x="300.82" y="480" />
            </Array>
          </mxGeometry>
        </mxCell>
        <mxCell id="izn0ppoS9mLuT67oPZO2-49" value="10. Notificación de éxito: Contrato enviado correctamente" style="text;html=1;align=center;verticalAlign=middle;whiteSpace=wrap;rounded=0;" vertex="1" parent="1">
          <mxGeometry x="107.5" y="640" width="190" height="20" as="geometry" />
        </mxCell>
        <mxCell id="izn0ppoS9mLuT67oPZO2-50" value="" style="endArrow=open;endSize=12;html=1;rounded=0;fontSize=12;curved=1;entryX=1;entryY=0;entryDx=0;entryDy=5;entryPerimeter=0;dashed=1;" edge="1" parent="1" target="izn0ppoS9mLuT67oPZO2-51">
          <mxGeometry width="160" relative="1" as="geometry">
            <mxPoint x="293" y="665" as="sourcePoint" />
            <mxPoint x="371" y="465" as="targetPoint" />
          </mxGeometry>
        </mxCell>
        <mxCell id="izn0ppoS9mLuT67oPZO2-53" value="" style="html=1;points=[[0,0,0,0,5],[0,1,0,0,-5],[1,0,0,0,5],[1,1,0,0,-5]];perimeter=orthogonalPerimeter;outlineConnect=0;targetShapes=umlLifeline;portConstraint=eastwest;newEdgeStyle={&quot;curved&quot;:0,&quot;rounded&quot;:0};" vertex="1" parent="1">
          <mxGeometry x="296.25" y="290" width="10" height="30" as="geometry" />
        </mxCell>
        <mxCell id="izn0ppoS9mLuT67oPZO2-47" value="[Error]" style="text;html=1;align=center;verticalAlign=middle;whiteSpace=wrap;rounded=0;" vertex="1" parent="1">
          <mxGeometry x="276.25" y="340" width="50" height="20" as="geometry" />
        </mxCell>
        <mxCell id="izn0ppoS9mLuT67oPZO2-56" value="" style="endArrow=none;dashed=1;html=1;rounded=0;" edge="1" parent="1" source="izn0ppoS9mLuT67oPZO2-59">
          <mxGeometry width="50" height="50" relative="1" as="geometry">
            <mxPoint x="299.75" y="490" as="sourcePoint" />
            <mxPoint x="301.75" y="446" as="targetPoint" />
            <Array as="points" />
          </mxGeometry>
        </mxCell>
        <mxCell id="izn0ppoS9mLuT67oPZO2-57" value="8. Confirmación" style="text;html=1;align=center;verticalAlign=middle;whiteSpace=wrap;rounded=0;" vertex="1" parent="1">
          <mxGeometry x="302.25" y="490" width="190" height="20" as="geometry" />
        </mxCell>
        <mxCell id="izn0ppoS9mLuT67oPZO2-58" value="" style="endArrow=classic;html=1;rounded=0;entryX=1;entryY=0;entryDx=0;entryDy=5;entryPerimeter=0;" edge="1" parent="1" target="izn0ppoS9mLuT67oPZO2-59">
          <mxGeometry width="50" height="50" relative="1" as="geometry">
            <mxPoint x="493.5" y="515" as="sourcePoint" />
            <mxPoint x="580" y="420" as="targetPoint" />
          </mxGeometry>
        </mxCell>
        <mxCell id="izn0ppoS9mLuT67oPZO2-59" value="&lt;span style=&quot;color: rgb(237, 237, 237); font-family: monospace; font-size: 0px; text-align: start;&quot;&gt;%3CmxGraphModel%3E%3Croot%3E%3CmxCell%20id%3D%220%22%2F%3E%3CmxCell%20id%3D%221%22%20parent%3D%220%22%2F%3E%3CmxCell%20id%3D%222%22%20value%3D%22%22%20style%3D%22html%3D1%3Bpoints%3D%5B%5B0%2C0%2C0%2C0%2C5%5D%2C%5B0%2C1%2C0%2C0%2C-5%5D%2C%5B1%2C0%2C0%2C0%2C5%5D%2C%5B1%2C1%2C0%2C0%2C-5%5D%5D%3Bperimeter%3DorthogonalPerimeter%3BoutlineConnect%3D0%3BtargetShapes%3DumlLifeline%3BportConstraint%3Deastwest%3BnewEdgeStyle%3D%7B%26quot%3Bcurved%26quot%3B%3A0%2C%26quot%3Brounded%26quot%3B%3A0%7D%3B%22%20vertex%3D%221%22%20parent%3D%221%22%3E%3CmxGeometry%20x%3D%2285%22%20y%3D%22280%22%20width%3D%2210%22%20height%3D%2230%22%20as%3D%22geometry%22%2F%3E%3C%2FmxCell%3E%3C%2Froot%3E%3C%2FmxGraphModel%3E&lt;/span&gt;&lt;span style=&quot;color: rgb(237, 237, 237); font-family: monospace; font-size: 0px; text-align: start;&quot;&gt;%3CmxGraphModel%3E%3Croot%3E%3CmxCell%20id%3D%220%22%2F%3E%3CmxCell%20id%3D%221%22%20parent%3D%220%22%2F%3E%3CmxCell%20id%3D%222%22%20value%3D%22%22%20style%3D%22html%3D1%3Bpoints%3D%5B%5B0%2C0%2C0%2C0%2C5%5D%2C%5B0%2C1%2C0%2C0%2C-5%5D%2C%5B1%2C0%2C0%2C0%2C5%5D%2C%5B1%2C1%2C0%2C0%2C-5%5D%5D%3Bperimeter%3DorthogonalPerimeter%3BoutlineConnect%3D0%3BtargetShapes%3DumlLifeline%3BportConstraint%3Deastwest%3BnewEdgeStyle%3D%7B%26quot%3Bcurved%26quot%3B%3A0%2C%26quot%3Brounded%26quot%3B%3A0%7D%3B%22%20vertex%3D%221%22%20parent%3D%221%22%3E%3CmxGeometry%20x%3D%2285%22%20y%3D%22280%22%20width%3D%2210%22%20height%3D%2230%22%20as%3D%22geometry%22%2F%3E%3C%2FmxCell%3E%3C%2Froot%3E%3C%2FmxGraphModel%3E&lt;/span&gt;" style="html=1;points=[[0,0,0,0,5],[0,1,0,0,-5],[1,0,0,0,5],[1,1,0,0,-5]];perimeter=orthogonalPerimeter;outlineConnect=0;targetShapes=umlLifeline;portConstraint=eastwest;newEdgeStyle={&quot;curved&quot;:0,&quot;rounded&quot;:0};" vertex="1" parent="1">
          <mxGeometry x="296.25" y="510" width="10" height="30" as="geometry" />
        </mxCell>
        <mxCell id="izn0ppoS9mLuT67oPZO2-60" value="7. Guardar contrato" style="text;html=1;align=center;verticalAlign=middle;whiteSpace=wrap;rounded=0;" vertex="1" parent="1">
          <mxGeometry x="304.75" y="440" width="170" height="20" as="geometry" />
        </mxCell>
        <mxCell id="izn0ppoS9mLuT67oPZO2-61" value="" style="endArrow=classic;html=1;rounded=0;entryX=0;entryY=0;entryDx=0;entryDy=5;entryPerimeter=0;" edge="1" parent="1" target="izn0ppoS9mLuT67oPZO2-62">
          <mxGeometry width="50" height="50" relative="1" as="geometry">
            <mxPoint x="298.5" y="465" as="sourcePoint" />
            <mxPoint x="573.5" y="460" as="targetPoint" />
          </mxGeometry>
        </mxCell>
        <mxCell id="izn0ppoS9mLuT67oPZO2-62" value="" style="html=1;points=[[0,0,0,0,5],[0,1,0,0,-5],[1,0,0,0,5],[1,1,0,0,-5]];perimeter=orthogonalPerimeter;outlineConnect=0;targetShapes=umlLifeline;portConstraint=eastwest;newEdgeStyle={&quot;curved&quot;:0,&quot;rounded&quot;:0};" vertex="1" parent="1">
          <mxGeometry x="486" y="460" width="10" height="30" as="geometry" />
        </mxCell>
        <mxCell id="izn0ppoS9mLuT67oPZO2-63" value="Receptor (Cliente o Admin)" style="html=1;whiteSpace=wrap;" vertex="1" parent="1">
          <mxGeometry x="610" y="50" width="110" height="50" as="geometry" />
        </mxCell>
        <mxCell id="izn0ppoS9mLuT67oPZO2-64" value="Receptor (Cliente o Admin)" style="html=1;whiteSpace=wrap;" vertex="1" parent="1">
          <mxGeometry x="610" y="730" width="110" height="50" as="geometry" />
        </mxCell>
        <mxCell id="izn0ppoS9mLuT67oPZO2-65" value="" style="endArrow=none;dashed=1;html=1;rounded=0;exitX=0.5;exitY=0;exitDx=0;exitDy=0;entryX=0.5;entryY=1;entryDx=0;entryDy=0;" edge="1" parent="1" source="izn0ppoS9mLuT67oPZO2-69" target="izn0ppoS9mLuT67oPZO2-63">
          <mxGeometry width="50" height="50" relative="1" as="geometry">
            <mxPoint x="670" y="430" as="sourcePoint" />
            <mxPoint x="671.5" y="210" as="targetPoint" />
          </mxGeometry>
        </mxCell>
        <mxCell id="izn0ppoS9mLuT67oPZO2-67" value="9. Notificar contrato recibido" style="text;html=1;align=center;verticalAlign=middle;whiteSpace=wrap;rounded=0;" vertex="1" parent="1">
          <mxGeometry x="496" y="550" width="170" height="20" as="geometry" />
        </mxCell>
        <mxCell id="izn0ppoS9mLuT67oPZO2-68" value="" style="endArrow=classic;html=1;rounded=0;entryX=0;entryY=0;entryDx=0;entryDy=5;entryPerimeter=0;dashed=1;" edge="1" parent="1" target="izn0ppoS9mLuT67oPZO2-69">
          <mxGeometry width="50" height="50" relative="1" as="geometry">
            <mxPoint x="98.75" y="575" as="sourcePoint" />
            <mxPoint x="373.75" y="570" as="targetPoint" />
          </mxGeometry>
        </mxCell>
        <mxCell id="izn0ppoS9mLuT67oPZO2-70" value="" style="endArrow=none;dashed=1;html=1;rounded=0;exitX=0.5;exitY=0;exitDx=0;exitDy=0;" edge="1" parent="1" source="izn0ppoS9mLuT67oPZO2-4" target="izn0ppoS9mLuT67oPZO2-51">
          <mxGeometry width="50" height="50" relative="1" as="geometry">
            <mxPoint x="95" y="730" as="sourcePoint" />
            <mxPoint x="95" y="420" as="targetPoint" />
            <Array as="points" />
          </mxGeometry>
        </mxCell>
        <mxCell id="izn0ppoS9mLuT67oPZO2-51" value="&lt;span style=&quot;color: rgb(237, 237, 237); font-family: monospace; font-size: 0px; text-align: start;&quot;&gt;%3CmxGraphModel%3E%3Croot%3E%3CmxCell%20id%3D%220%22%2F%3E%3CmxCell%20id%3D%221%22%20parent%3D%220%22%2F%3E%3CmxCell%20id%3D%222%22%20value%3D%22%22%20style%3D%22html%3D1%3Bpoints%3D%5B%5B0%2C0%2C0%2C0%2C5%5D%2C%5B0%2C1%2C0%2C0%2C-5%5D%2C%5B1%2C0%2C0%2C0%2C5%5D%2C%5B1%2C1%2C0%2C0%2C-5%5D%5D%3Bperimeter%3DorthogonalPerimeter%3BoutlineConnect%3D0%3BtargetShapes%3DumlLifeline%3BportConstraint%3Deastwest%3BnewEdgeStyle%3D%7B%26quot%3Bcurved%26quot%3B%3A0%2C%26quot%3Brounded%26quot%3B%3A0%7D%3B%22%20vertex%3D%221%22%20parent%3D%221%22%3E%3CmxGeometry%20x%3D%2285%22%20y%3D%22280%22%20width%3D%2210%22%20height%3D%2230%22%20as%3D%22geometry%22%2F%3E%3C%2FmxCell%3E%3C%2Froot%3E%3C%2FmxGraphModel%3E&lt;/span&gt;&lt;span style=&quot;color: rgb(237, 237, 237); font-family: monospace; font-size: 0px; text-align: start;&quot;&gt;%3CmxGraphModel%3E%3Croot%3E%3CmxCell%20id%3D%220%22%2F%3E%3CmxCell%20id%3D%221%22%20parent%3D%220%22%2F%3E%3CmxCell%20id%3D%222%22%20value%3D%22%22%20style%3D%22html%3D1%3Bpoints%3D%5B%5B0%2C0%2C0%2C0%2C5%5D%2C%5B0%2C1%2C0%2C0%2C-5%5D%2C%5B1%2C0%2C0%2C0%2C5%5D%2C%5B1%2C1%2C0%2C0%2C-5%5D%5D%3Bperimeter%3DorthogonalPerimeter%3BoutlineConnect%3D0%3BtargetShapes%3DumlLifeline%3BportConstraint%3Deastwest%3BnewEdgeStyle%3D%7B%26quot%3Bcurved%26quot%3B%3A0%2C%26quot%3Brounded%26quot%3B%3A0%7D%3B%22%20vertex%3D%221%22%20parent%3D%221%22%3E%3CmxGeometry%20x%3D%2285%22%20y%3D%22280%22%20width%3D%2210%22%20height%3D%2230%22%20as%3D%22geometry%22%2F%3E%3C%2FmxCell%3E%3C%2Froot%3E%3C%2FmxGraphModel%3E&lt;/span&gt;" style="html=1;points=[[0,0,0,0,5],[0,1,0,0,-5],[1,0,0,0,5],[1,1,0,0,-5]];perimeter=orthogonalPerimeter;outlineConnect=0;targetShapes=umlLifeline;portConstraint=eastwest;newEdgeStyle={&quot;curved&quot;:0,&quot;rounded&quot;:0};" vertex="1" parent="1">
          <mxGeometry x="90" y="660" width="10" height="30" as="geometry" />
        </mxCell>
        <mxCell id="izn0ppoS9mLuT67oPZO2-71" value="" style="endArrow=none;dashed=1;html=1;rounded=0;exitX=0.5;exitY=0;exitDx=0;exitDy=0;entryX=0.5;entryY=1;entryDx=0;entryDy=0;" edge="1" parent="1" source="izn0ppoS9mLuT67oPZO2-64" target="izn0ppoS9mLuT67oPZO2-69">
          <mxGeometry width="50" height="50" relative="1" as="geometry">
            <mxPoint x="665" y="730" as="sourcePoint" />
            <mxPoint x="665" y="100" as="targetPoint" />
          </mxGeometry>
        </mxCell>
        <mxCell id="izn0ppoS9mLuT67oPZO2-69" value="" style="html=1;points=[[0,0,0,0,5],[0,1,0,0,-5],[1,0,0,0,5],[1,1,0,0,-5]];perimeter=orthogonalPerimeter;outlineConnect=0;targetShapes=umlLifeline;portConstraint=eastwest;newEdgeStyle={&quot;curved&quot;:0,&quot;rounded&quot;:0};" vertex="1" parent="1">
          <mxGeometry x="660" y="570" width="10" height="30" as="geometry" />
        </mxCell>
        <mxCell id="_wCzWC2lmZaSmkMntFRk-1" value="" style="endArrow=classic;html=1;rounded=0;entryX=0;entryY=0;entryDx=0;entryDy=5;entryPerimeter=0;" edge="1" parent="1">
          <mxGeometry width="50" height="50" relative="1" as="geometry">
            <mxPoint x="96.25" y="289" as="sourcePoint" />
            <mxPoint x="296" y="290" as="targetPoint" />
          </mxGeometry>
        </mxCell>
        <mxCell id="_wCzWC2lmZaSmkMntFRk-2" value="4. Pulsar el boton &quot;Enviar contrato&quot;" style="text;html=1;align=center;verticalAlign=middle;whiteSpace=wrap;rounded=0;" vertex="1" parent="1">
          <mxGeometry x="111.25" y="265" width="170" height="20" as="geometry" />
        </mxCell>
      </root>
    </mxGraphModel>
  </diagram>
</mxfile>
